PathFileType	4	(X/Y/Z)	RBDS001\RBDS001runT25.trc																																																																																																	
DataRate	CameraRate	NumFrames	NumMarkers	Units	OrigDataRate	OrigDataStartFrame	OrigNumFrames																																																																																													
150	150	4	33	mm	150	2812	4500																																																																																													
Frame#	Time	L.ASIS			L.Heel.Bottom			L.Heel.Lateral			L.Heel.Top			L.Iliac.Crest			L.MT1			L.MT5			L.PSIS			L.Shank.Bottom.Lateral			L.Shank.Bottom.Medial			L.Shank.Top.Lateral			L.Shank.Top.Medial			L.Thigh.Bottom.Lateral			L.Thigh.Bottom.Medial			L.Thigh.Top.Lateral			L.Thigh.Top.Medial			R.ASIS			R.ASY			R.Heel.Bottom			R.Heel.Lateral			R.Heel.Top			R.Iliac.Crest			R.MT5			R.MT1			R.PSIS			R.Shank.Bottom.Lateral			R.Shank.Bottom.Medial			R.Shank.Top.Lateral			R.Shank.Top.Medial			R.Thigh.Bottom.Lateral			R.Thigh.Bottom.Medial			R.Thigh.Top.Lateral			R.Thigh.Top.Medial		
		X1	Y1	Z1	X2	Y2	Z2	X3	Y3	Z3	X4	Y4	Z4	X5	Y5	Z5	X6	Y6	Z6	X7	Y7	Z7	X8	Y8	Z8	X9	Y9	Z9	X10	Y10	Z10	X11	Y11	Z11	X12	Y12	Z12	X13	Y13	Z13	X14	Y14	Z14	X15	Y15	Z15	X16	Y16	Z16	X17	Y17	Z17	X18	Y18	Z18	X19	Y19	Z19	X20	Y20	Z20	X21	Y21	Z21	X22	Y22	Z22	X23	Y23	Z23	X24	Y24	Z24	X25	Y25	Z25	X26	Y26	Z26	X27	Y27	Z27	X28	Y28	Z28	X29	Y29	Z29	X30	Y30	Z30	X31	Y31	Z31	X32	Y32	Z32	X33	Y33	Z33
																																																																																																				
2813	18.74666667	2337.875691	1082.715444	968.1895733	2394.914228	66.29981788	1070.316227	2411.598793	72.92445402	1021.737898	2396.304591	112.5759332	1058.770791	2280.558091	1155.550259	933.0977459	2614.212176	113.9992295	1045.925455	2561.667566	73.72690871	958.806744	2174.167167	1129.030796	1036.254074	2429.468565	218.0100638	978.2600522	2396.30222	212.4651428	1017.494726	2404.352703	292.7928554	961.3900995	2369.238426	291.6351192	1002.288075	2326.012343	678.0431857	925.7904668	2278.498106	664.5437974	979.4017346	2279.747567	777.2410627	912.9941676	2236.401913	766.0111947	964.6132814	2343.055694	1070.063323	1174.308377	216557436.4	179884752.9	9065926329	1741.701531	297.8635532	1134.416975	1767.93421	270.8192738	1174.88499	1789.730613	307.3723622	1136.914549	2297.209621	1151.307577	1202.065556	1832.66846	111.6122933	1175.623848	1851.142468	112.5731623	1068.469316	2181.498857	1130.208588	1113.012474	1886.934196	315.6790545	1181.775442	1856.493071	346.2084722	1148.300839	1935.395231	379.895188	1194.283815	1904.882489	409.3125099	1160.913204	2168.146061	667.852665	1204.972208	2110.431059	683.3714971	1160.256136	2179.545993	775.8722604	1222.973119	2124.752991	790.4635805	1180.578424
2814	18.75333333	2338.27173	1081.197478	968.2196628	2398.652497	64.28452237	1073.067382	2415.394372	70.11455884	1024.387666	2399.602612	110.3905528	1060.620063	2280.936238	1153.801155	933.2406957	2617.587852	113.9576238	1048.414524	2565.528879	71.53095784	961.8646748	2174.3589	1126.943659	1036.322979	2431.442685	215.6840659	979.6732235	2398.422509	209.7894286	1019.015782	2405.359355	290.1040823	962.695429	2370.287931	288.6084418	1003.64512	2324.256639	675.9932882	926.5779113	2276.774926	662.9534095	980.2979702	2278.750795	775.4139165	913.6129809	2235.369137	764.7065759	965.3341589	2343.396253	1068.70424	1174.350651	216889942.3	180161995.4	9079890464	1739.329833	303.7921012	1136.725687	1765.873192	276.6559694	1176.952482	1787.471712	312.8455621	1138.544909	2296.822908	1149.777113	1202.190705	1829.249997	117.034775	1177.439739	1846.441824	117.3545192	1069.990686	2181.636207	1128.023983	1113.110041	1886.140684	319.3463718	1182.817544	1856.415936	350.8041373	1149.531132	1936.45785	382.2102858	1195.087293	1906.68017	412.5216514	1161.86455	2173.147152	664.1756946	1205.008946	2115.595842	679.0026242	1159.908825	2183.16877	772.2653893	1223.03853	2128.311792	786.2396269	1180.500505
2815	18.76	2338.49266	1079.377377	968.15065	2399.551349	62.33026142	1075.545785	2416.53923	67.34856548	1026.839529	2400.44247	108.2629939	1062.320423	2280.973785	1151.654945	933.3891768	2618.419733	112.3762087	1051.580529	2566.920852	68.61160227	965.2976382	2174.393196	1124.366447	1036.537912	2431.861023	213.0719978	981.0831179	2398.866164	207.050537	1020.451361	2405.350171	287.2948799	963.9425852	2370.253675	285.6821349	1004.879635	2323.194762	673.8430177	927.2987817	2275.665709	661.0468128	981.0080618	2278.213592	773.3791056	914.1942694	2234.728786	762.9854614	965.9279656	2343.669634	1066.819116	1174.328946	217222788.3	180439522.6	9093868930	1737.47598	309.341959	1138.864084	1764.323634	282.1508086	1178.889293	1785.703721	318.0201356	1140.087271	2296.395594	1147.659001	1202.338052	1826.685899	122.3202556	1179.295041	1842.753758	121.9851886	1071.558956	2181.680792	1125.288468	1113.334266	1885.970392	322.7809835	1183.877049	1857.023779	355.1380124	1150.735528	1938.123851	384.2192926	1195.96324	1909.144563	415.3991011	1162.824301	2178.464312	659.8910986	1205.137954	2121.160837	673.8970561	1159.542155	2186.926658	768.0738488	1223.096215	2132.09049	781.304007	1180.28544
2816	18.76666667	2338.559889	1077.236516	967.9816366	2397.617827	60.32584675	1077.722072	2415.01864	64.61062136	1029.074224	2398.816301	106.1053701	1063.929136	2280.698933	1149.091745	933.5363162	2616.718768	109.2174483	1055.418699	2565.830139	65.11295351	969.0480137	2174.283743	1121.295209	1036.886213	2430.747269	210.1065433	982.5345096	2397.628005	204.1867773	1021.812956	2404.362214	284.3029559	965.1543877	2369.140885	282.7974847	1005.98217	2322.82534	671.5313657	927.9387851	2275.170381	658.7746207	981.5243296	2278.135046	771.0834711	914.7160657	2234.48227	760.7987118	966.3734488	2343.877851	1064.399986	1174.236036	217555974.7	180717334.7	9107861735	1736.278303	314.5762318	1140.758146	1763.349181	287.3384047	1180.650855	1784.573357	322.9145536	1141.528138	2295.97285	1144.962667	1202.494903	1824.895847	127.3958096	1181.212028	1840.128943	126.4033307	1073.237437	2181.643803	1122.011743	1113.672452	1886.476633	325.9672094	1184.974144	1858.375392	359.166306	1151.912449	1940.417529	385.9212931	1196.927915	1912.304407	417.9164927	1163.790235	2184.049005	655.0512773	1205.359691	2127.077787	668.1104489	1159.162647	2190.784422	763.348476	1223.141109	2136.060763	775.7064015	1179.929813
